<svg width="400.674" height="400.674" xmlns="http://www.w3.org/2000/svg">

 <g>
  <title>background</title>
  <rect fill="none" id="canvas_background" height="402" width="582" y="-1" x="-1"/>
 </g>
 <g>
  <title>Layer 1</title>
  <g stroke-width="0" stroke="#ffffff" fill="white" id="svg_1">
   <path stroke="#ffffff" stroke-width="0" id="svg_2" d="m336.91,73.586c-35.986,-35.52 -83.653,-55.082 -134.218,-55.082c-0.518,0 -1.036,0.01 -1.522,0.02c-17.621,0.121 -35.042,2.664 -51.863,7.551c-0.618,-0.661 -1.236,-1.322 -1.878,-1.964c-15.549,-15.548 -36.221,-24.111 -58.209,-24.111s-42.66,8.563 -58.209,24.111c-13.849,13.849 -22.322,32.229 -23.857,51.755c-1.536,19.525 3.96,39.004 15.474,54.848l3.738,5.144c-9.794,23.362 -14.764,48.14 -14.764,73.726c0,51.517 20.193,99.819 56.862,136.008c35.996,35.52 83.666,55.082 134.228,55.082c50.565,0 98.231,-19.562 134.218,-55.082c36.668,-36.189 56.862,-84.491 56.862,-136.008c0,-51.521 -20.194,-99.819 -56.862,-135.998zm-141.721,311.621c-30.094,-3.602 -58.063,-28.719 -76.646,-69.033c23.389,-12.758 49.481,-20.04 76.646,-21.174l0,90.207zm15,-90.206c27.165,1.134 53.258,8.418 76.651,21.178c-18.592,40.312 -46.563,65.428 -76.651,69.029l0,-90.207zm0,-15.009l0,-62.907l98.37,0c-0.772,30.315 -6.225,59.448 -15.912,85.17c-25.218,-13.489 -53.276,-21.141 -82.458,-22.263zm0,-77.907l0,-62.903c28.878,-1.131 57.076,-8.778 82.433,-22.326c9.703,25.736 15.165,54.892 15.937,85.229l-98.37,0zm0,-168.11c30.05,3.602 58.038,28.699 76.632,68.983c-23.514,12.813 -49.746,20.065 -76.632,21.207l0,-90.19zm89.56,61.194c-9.847,-20.896 -22.162,-38.082 -36.095,-50.85c20.862,7.685 40.196,19.344 57.049,34.594c-6.58,5.947 -13.588,11.384 -20.954,16.256zm-128.464,-19.303c-0.813,-10.347 -3.593,-20.363 -8.07,-29.563c10.237,-6.922 20.941,-11.052 31.974,-12.345l0,90.211c-11.047,-0.463 -21.974,-1.96 -32.661,-4.453c6.862,-13.458 9.953,-28.636 8.757,-43.85zm-17.206,57.231c13.395,3.514 27.172,5.559 41.111,6.097l0,62.89l-91.247,0l50.136,-68.987zm41.11,83.988l0,62.907c-29.181,1.121 -57.237,8.771 -82.451,22.257c-9.688,-25.72 -15.142,-54.853 -15.913,-85.164l98.364,0zm-89.573,106.871c9.845,20.916 22.163,38.121 36.105,50.899c-20.863,-7.687 -40.201,-19.348 -57.057,-34.6c6.621,-5.993 13.621,-11.438 20.952,-16.299zm194.152,0.005c7.328,4.86 14.327,10.302 20.947,16.292c-16.853,15.254 -36.19,26.917 -57.054,34.604c13.94,-12.778 26.259,-29.983 36.107,-50.896zm6.005,-13.985c10.896,-27.984 16.992,-59.825 17.794,-92.891l55.038,0c-1.755,42.239 -18.306,81.745 -47.188,112.631c-8.05,-7.351 -16.627,-13.942 -25.644,-19.74zm72.832,-107.891l-55.038,0c-0.802,-33.076 -6.903,-64.927 -17.807,-92.918c9.07,-5.815 17.654,-12.421 25.651,-19.714c28.887,30.879 45.44,70.386 47.194,112.632zm-336.987,-167.368c13.123,-13.124 30.363,-19.685 47.602,-19.685s34.479,6.562 47.602,19.686c23.561,23.561 26.443,60.224 6.854,87.178l-54.456,74.932l-54.457,-74.932c-19.588,-26.955 -16.705,-63.618 6.855,-87.179zm32.879,167.368l-47.725,0c0.739,-17.819 4.11,-35.171 10.076,-51.805l37.649,51.805zm-47.727,15l55.047,0c0.802,33.064 6.9,64.904 17.795,92.886c-9.02,5.8 -17.6,12.395 -25.652,19.749c-28.885,-30.886 -45.436,-70.394 -47.19,-112.635z"/>
   <path stroke="#ffffff" stroke-width="0" id="svg_3" d="m89.22,131.523c27.131,0 49.204,-22.073 49.204,-49.205s-22.073,-49.203 -49.204,-49.203c-6.844,0 -13.471,1.38 -19.697,4.103c-3.795,1.66 -5.526,6.082 -3.867,9.877c1.66,3.794 6.082,5.525 9.877,3.867c4.319,-1.889 8.925,-2.847 13.688,-2.847c18.86,0 34.204,15.344 34.204,34.204s-15.344,34.205 -34.204,34.205s-34.205,-15.344 -34.205,-34.205c0,-4.142 -3.357,-7.5 -7.5,-7.5s-7.5,3.358 -7.5,7.5c-0.001,27.131 22.072,49.204 49.204,49.204z"/>
   <path stroke="#ffffff" stroke-width="0" id="svg_4" d="m48.689,63.386c2.539,6.133 11.531,5.989 13.918,-0.17c2.529,-6.527 -4.868,-12.696 -10.841,-9.125c-3.168,1.894 -4.44,5.883 -3.077,9.295c0.191,0.46 -0.179,-0.45 0,0z"/>
  </g>
  <g id="svg_5"/>
  <g id="svg_6"/>
  <g id="svg_7"/>
  <g id="svg_8"/>
  <g id="svg_9"/>
  <g id="svg_10"/>
  <g id="svg_11"/>
  <g id="svg_12"/>
  <g id="svg_13"/>
  <g id="svg_14"/>
  <g id="svg_15"/>
  <g id="svg_16"/>
  <g id="svg_17"/>
  <g id="svg_18"/>
  <g id="svg_19"/>
 </g>
</svg>